<?xml version="1.0" encoding="UTF-8" standalone="no"?>
<!-- Created with Inkscape (http://www.inkscape.org/) -->

<svg
   xmlns:dc="http://purl.org/dc/elements/1.1/"
   xmlns:cc="http://creativecommons.org/ns#"
   xmlns:rdf="http://www.w3.org/1999/02/22-rdf-syntax-ns#"
   xmlns:svg="http://www.w3.org/2000/svg"
   xmlns="http://www.w3.org/2000/svg"
   xmlns:sodipodi="http://sodipodi.sourceforge.net/DTD/sodipodi-0.dtd"
   xmlns:inkscape="http://www.inkscape.org/namespaces/inkscape"
   width="512"
   height="512"
   viewBox="0 0 135.46667 135.46667"
   version="1.1"
   id="svg4535"
   inkscape:version="0.92.4 (5da689c313, 2019-01-14)"
   sodipodi:docname="icon.svg"
   inkscape:export-filename="C:\Users\Jirik\projects\animalwatch\anwa\anwa.png"
   inkscape:export-xdpi="192"
   inkscape:export-ydpi="192">
  <defs
     id="defs4529" />
  <sodipodi:namedview
     id="base"
     pagecolor="#ffffff"
     bordercolor="#666666"
     borderopacity="1.0"
     inkscape:pageopacity="0"
     inkscape:pageshadow="2"
     inkscape:zoom="1.4"
     inkscape:cx="330.40471"
     inkscape:cy="226.81367"
     inkscape:document-units="mm"
     inkscape:current-layer="layer1"
     showgrid="true"
     units="px"
     inkscape:window-width="1920"
     inkscape:window-height="1017"
     inkscape:window-x="-8"
     inkscape:window-y="-8"
     inkscape:window-maximized="1"
     inkscape:pagecheckerboard="false">
    <inkscape:grid
       type="xygrid"
       id="grid5092" />
  </sodipodi:namedview>
  <metadata
     id="metadata4532">
    <rdf:RDF>
      <cc:Work
         rdf:about="">
        <dc:format>image/svg+xml</dc:format>
        <dc:type
           rdf:resource="http://purl.org/dc/dcmitype/StillImage" />
        <dc:title></dc:title>
      </cc:Work>
    </rdf:RDF>
  </metadata>
  <g
     inkscape:label="Vrstva 1"
     inkscape:groupmode="layer"
     id="layer1"
     transform="translate(0,-161.53337)">
    <rect
       style="fill:#dab947;fill-opacity:1;stroke:none;stroke-width:1.05303717;stroke-linecap:round;stroke-linejoin:round;stroke-miterlimit:4;stroke-dasharray:none;stroke-dashoffset:0;stroke-opacity:1"
       id="rect5232"
       width="134.9375"
       height="135.28015"
       x="6.6613381e-16"
       y="162.06253"
       ry="16.564915"
       inkscape:export-filename="C:\Users\Jirik\projects\animalwatch\anwa\rect5232.png"
       inkscape:export-xdpi="192"
       inkscape:export-ydpi="192" />
    <path
       style="fill:none;stroke:#a75224;stroke-width:3;stroke-linecap:butt;stroke-linejoin:miter;stroke-miterlimit:4;stroke-dasharray:none;stroke-opacity:1"
       d="m 234.15625,310.2292 c 6.61636,-36.26477 19.46407,-45.63636 38.36458,-31.75 -7.74779,16.35251 -18.82285,15.16647 -29.47483,4.48311"
       id="path5082"
       inkscape:connector-curvature="0"
       sodipodi:nodetypes="ccc" />
    <path
       style="fill:none;stroke:#a75224;stroke-width:3;stroke-linecap:butt;stroke-linejoin:miter;stroke-miterlimit:4;stroke-dasharray:none;stroke-opacity:1"
       d="m 256.64583,275.83336 2.64584,10.58334"
       id="path5088"
       inkscape:connector-curvature="0"
       sodipodi:nodetypes="cc" />
    <path
       style="fill:none;stroke:#a75224;stroke-width:3;stroke-linecap:butt;stroke-linejoin:miter;stroke-miterlimit:4;stroke-dasharray:none;stroke-opacity:1"
       d="m 218.37575,310.22919 c 0,2.64584 5.19717,9.26043 7.843,9.26043 2.64584,0 7.83768,-6.9125 7.9375,-9.26042 0,-1.32292 -15.7805,-1.32292 -15.7805,-10e-6 z"
       id="path5090"
       inkscape:connector-curvature="0"
       sodipodi:nodetypes="sccs" />
    <path
       style="fill:none;stroke:#a75224;stroke-width:3;stroke-linecap:butt;stroke-linejoin:miter;stroke-miterlimit:4;stroke-dasharray:none;stroke-opacity:1"
       d="m 243.41667,246.7292 37.04166,-31.75 -5.29166,42.33333 v 0"
       id="path5094"
       inkscape:connector-curvature="0" />
    <path
       style="fill:none;stroke:#a75224;stroke-width:3;stroke-linecap:butt;stroke-linejoin:miter;stroke-miterlimit:4;stroke-dasharray:none;stroke-opacity:1"
       d="m 216.95833,310.2292 c -6.61636,-36.26477 -18.14115,-45.63636 -37.04166,-31.75 7.74779,16.35251 18.82285,15.16647 29.47483,4.48311"
       id="path5082-5"
       inkscape:connector-curvature="0"
       sodipodi:nodetypes="ccc" />
    <path
       style="fill:none;stroke:#a75224;stroke-width:3;stroke-linecap:butt;stroke-linejoin:miter;stroke-miterlimit:4;stroke-dasharray:none;stroke-opacity:1"
       d="m 293.6875,196.45837 -13.22917,18.52083 7.9375,-18.52083"
       id="path5128"
       inkscape:connector-curvature="0" />
    <path
       style="fill:none;stroke:#a75224;stroke-width:3;stroke-linecap:butt;stroke-linejoin:miter;stroke-miterlimit:4;stroke-dasharray:none;stroke-opacity:1"
       d="m 283.10417,191.1667 -2.64584,23.8125 13.22917,-23.8125"
       id="path5130"
       inkscape:connector-curvature="0" />
    <path
       style="fill:none;stroke:#a75224;stroke-width:3;stroke-linecap:butt;stroke-linejoin:miter;stroke-miterlimit:4;stroke-dasharray:none;stroke-opacity:1"
       d="m 280.45833,214.9792 7.9375,-23.8125"
       id="path5132"
       inkscape:connector-curvature="0" />
    <circle
       style="fill:#a75224;fill-opacity:1;stroke:none;stroke-width:3;stroke-linecap:round;stroke-linejoin:round;stroke-miterlimit:4;stroke-dasharray:none;stroke-dashoffset:0;stroke-opacity:1"
       id="path5134-3"
       cx="25.135416"
       cy="282.44794"
       r="0" />
    <circle
       style="fill:#a75224;fill-opacity:1;stroke:none;stroke-width:3;stroke-linecap:round;stroke-linejoin:round;stroke-miterlimit:4;stroke-dasharray:none;stroke-dashoffset:0;stroke-opacity:1"
       id="path5134-9"
       cx="25.135416"
       cy="282.44794"
       r="0" />
    <circle
       style="fill:#a75224;fill-opacity:1;stroke:none;stroke-width:3;stroke-linecap:round;stroke-linejoin:round;stroke-miterlimit:4;stroke-dasharray:none;stroke-dashoffset:0;stroke-opacity:1"
       id="path5134-38"
       cx="25.135416"
       cy="282.44794"
       r="0" />
    <circle
       r="1.3229166"
       cy="339.49451"
       cx="223.18747"
       id="circle5209"
       style="fill:#a75224;fill-opacity:1;stroke:none;stroke-width:3;stroke-linecap:round;stroke-linejoin:round;stroke-miterlimit:4;stroke-dasharray:none;stroke-dashoffset:0;stroke-opacity:1" />
    <circle
       style="fill:#a75224;fill-opacity:1;stroke:none;stroke-width:3;stroke-linecap:round;stroke-linejoin:round;stroke-miterlimit:4;stroke-dasharray:none;stroke-dashoffset:0;stroke-opacity:1"
       id="circle5220"
       cx="185.95641"
       cy="337.62363"
       r="1.3229166" />
    <path
       style="fill:none;stroke:#a75224;stroke-width:3;stroke-linecap:butt;stroke-linejoin:miter;stroke-miterlimit:4;stroke-dasharray:none;stroke-opacity:1"
       d="m 193.14584,286.4167 2.64583,-10.58334"
       id="path5088-1"
       inkscape:connector-curvature="0"
       sodipodi:nodetypes="cc" />
    <path
       style="fill:none;stroke:#a75224;stroke-width:3;stroke-linecap:butt;stroke-linejoin:miter;stroke-miterlimit:4;stroke-dasharray:none;stroke-opacity:1"
       d="m 209.02083,246.7292 -37.04166,-31.75 5.29166,42.33333 v 0"
       id="path5094-7"
       inkscape:connector-curvature="0" />
    <path
       style="fill:none;stroke:#a75224;stroke-width:3;stroke-linecap:butt;stroke-linejoin:miter;stroke-miterlimit:4;stroke-dasharray:none;stroke-opacity:1"
       d="m 158.75,196.45837 13.22917,18.52083 -7.9375,-18.52083"
       id="path5128-2"
       inkscape:connector-curvature="0" />
    <path
       style="fill:none;stroke:#a75224;stroke-width:3;stroke-linecap:butt;stroke-linejoin:miter;stroke-miterlimit:4;stroke-dasharray:none;stroke-opacity:1"
       d="m 169.33334,191.1667 2.64583,23.8125 L 158.75,191.1667"
       id="path5130-8"
       inkscape:connector-curvature="0" />
    <path
       style="fill:none;stroke:#a75224;stroke-width:3;stroke-linecap:butt;stroke-linejoin:miter;stroke-miterlimit:4;stroke-dasharray:none;stroke-opacity:1"
       d="m 171.97917,214.9792 -7.9375,-23.8125"
       id="path5132-7"
       inkscape:connector-curvature="0" />
    <path
       style="fill:#a75224;fill-opacity:1;stroke:none;stroke-width:0.76300001;stroke-linecap:round;stroke-linejoin:round;stroke-miterlimit:4;stroke-dasharray:none;stroke-dashoffset:0;stroke-opacity:1"
       id="path5311"
       d="m 51.911269,282.12214 c -1.443445,0.0343 -2.868332,-0.1779 -4.290467,-0.3939 -2.056432,-0.2227 -4.110861,-0.44087 -6.149957,-0.79341 -2.250292,-0.384 -4.528224,-0.55494 -6.780829,-0.92297 -1.421433,-0.25114 -2.851643,-0.43796 -4.292903,-0.51652 -1.01002,-0.13926 -2.01368,-0.26767 -3.00596,-0.50015 -1.00276,-0.22324 -2.03336,-0.20699 -3.04735,-0.33777 -1.30174,-0.20449 -2.62509,-0.35761 -3.90991,-0.65622 -0.78591,-0.31212 -1.66161,-0.53664 -2.34654,-1.05188 -1.08865,-2.57168 3.78347,-3.64275 6.06694,-3.7435 1.60269,-0.0938 3.19776,0.0427 4.79457,0.15854 2.82404,0.29849 5.63962,0.66997 8.461702,0.98603 2.07835,0.25816 4.151755,0.53315 6.222815,0.84345 0.957995,0.15398 1.925508,0.2139 2.894333,0.23269 0.720296,0.21221 1.485109,0.20031 2.202053,0.40728 0.67737,0.17035 1.313926,0.44305 1.999345,0.58576 0.576831,0.0325 1.428432,0.37829 1.859677,-0.12427 -1.565749,0.91362 -3.15825,1.78286 -4.697246,2.74086 -0.04483,0.0279 0.108696,0.14204 0.05624,0.14809 -0.08388,0.01 -0.141957,-0.0922 -0.217723,-0.12947 -0.127688,-0.0628 -0.260594,-0.11441 -0.391496,-0.17022 -0.640072,-0.27287 -0.55566,-0.23249 -1.302597,-0.52484 -1.882037,-0.67146 -3.763714,-1.35933 -5.669796,-1.96156 -1.706845,-0.59552 -3.435326,-1.12997 -5.135864,-1.74312 -1.577413,-0.58371 -3.196213,-1.03696 -4.799583,-1.54038 -1.41023,-0.50665 -2.84394,-0.97206 -4.30472,-1.31095 -0.91399,-0.19533 -1.84736,-0.26012 -2.77976,-0.27355 4.50561,-3.38933 3.7289,-3.40366 7.67759,-3.551 1.25521,-0.0378 2.52099,-0.0983 3.772993,0.0451 0.06651,0.008 2.161384,0.35291 2.187871,0.35727 1.943172,0.33538 3.905081,0.51588 5.873552,0.59979 1.461585,0.0491 2.924117,0.0402 4.386249,0.0371 1.1327,0.0401 2.22717,0.28293 3.32994,0.51477 0.883219,0.18299 1.787035,0.20318 2.685373,0.22255 0.613275,-0.0907 1.657688,0.16141 2.229416,-0.0203 -5.336363,3.83313 -3.246686,3.32604 -7.363516,3.29101 -1.089578,-0.0408 -2.186196,0.0704 -3.27226,-0.0581 -0.262303,-0.031 -1.186421,-0.20689 -1.456111,-0.25697 -1.526111,-0.37469 -3.066783,-0.68464 -4.59827,-1.03491 -1.463382,-0.39498 -2.941768,-0.7347 -4.403237,-1.13477 -1.14559,-0.40429 -2.28626,-0.78949 -3.33615,-1.40567 -0.86955,-0.57059 -1.74776,-1.1522 -2.67752,-1.62027 -0.66642,-0.37738 -1.29095,-0.83218 -2.05211,-0.97868 -0.0247,0.0388 -0.11326,0.14035 -0.0741,0.11633 5.8887,-3.60983 3.05658,-3.46092 6.1932,-2.54113 1.41299,0.24317 2.844126,0.3937 4.270547,0.54651 1.657911,0.10107 3.304757,0.31243 4.960546,0.44262 1.362649,0.10472 2.729542,0.12402 4.095541,0.13131 0.781566,2e-5 0.399341,5.3e-4 1.14668,-0.002 0,0 -4.510412,3.27496 -4.510412,3.27496 v 0 c -0.739103,-0.007 -0.360913,-0.003 -1.134565,-0.0122 -1.367748,-0.0216 -2.737446,-0.043 -4.099648,-0.17978 -1.656834,-0.15505 -3.311489,-0.33193 -4.971289,-0.45281 -1.45912,-0.17229 -2.93565,-0.27548 -4.3695,-0.60211 -3.14455,-0.99362 -1.53122,-0.88501 2.94281,-3.98313 0.0582,-0.0403 0.13095,0.054 0.19643,0.0809 0.73507,0.28153 1.39121,0.71919 2.07609,1.10139 0.91483,0.50582 1.796499,1.06973 2.670116,1.64331 1.029002,0.55658 2.145676,0.9173 3.250001,1.29567 1.455508,0.38573 2.908856,0.78113 4.374973,1.12526 1.531157,0.33495 3.056364,0.69673 4.592161,1.01022 1.544955,0.26636 3.094271,0.28612 4.660233,0.24336 0.67309,-0.005 1.346126,-0.0119 2.019192,-0.0191 2.383988,-0.0255 1.935419,-0.48043 -3.70554,3.3165 -0.717851,-0.0767 -1.455626,-0.007 -2.179119,-0.0494 -0.923232,-0.0326 -1.849178,-0.0803 -2.750021,-0.30353 -1.065702,-0.23855 -2.140386,-0.42775 -3.237161,-0.4346 -1.453848,-0.003 -2.908138,-0.0184 -4.360537,-0.0884 -1.971886,-0.105 -3.929748,-0.33282 -5.876168,-0.67068 -1.9673,-0.2952 -3.9388,-0.46218 -5.92886,-0.28657 -3.85472,0.23663 -4.66056,1.38224 1.32777,-2.99169 0.93768,0.0801 1.87858,0.15134 2.79149,0.39928 1.44796,0.38629 2.87265,0.8598 4.283893,1.36264 1.614861,0.49305 3.241001,0.95491 4.820714,1.55527 1.694249,0.60348 3.407714,1.1537 5.107437,1.7417 1.908313,0.63246 3.80216,1.3102 5.701006,1.97014 0.663223,0.23696 1.727235,0.47429 2.202146,1.06786 1.544436,1.93034 -3.282625,2.6386 -4.628589,3.45957 -0.69314,0.056 -1.392574,-0.0547 -2.069621,-0.19767 -0.671388,-0.17995 -1.320139,-0.43395 -2.00052,-0.58269 -0.707112,-0.12383 -1.419794,-0.23309 -2.131595,-0.321 -0.968322,-0.0449 -1.931855,-0.14779 -2.885527,-0.32553 -2.033426,-0.35025 -4.076345,-0.62065 -6.122514,-0.88609 -2.83074,-0.35218 -5.65853,-0.74053 -8.50747,-0.92031 -1.60004,-0.10306 -3.20369,-0.21867 -4.80406,-0.0383 -0.2845,0.0431 -0.52993,0.0645 -0.80052,0.15654 -0.0976,0.0332 -0.37115,0.17831 -0.28301,0.12481 0.65072,-0.39491 6.3973,-2.08832 4.25949,-2.88518 0.64783,0.43783 1.43219,0.66104 2.16925,0.89328 1.27763,0.25771 2.56695,0.48163 3.86379,0.6136 1.0421,0.0826 2.0923,0.12452 3.11265,0.37389 0.9676,0.21425 1.95466,0.33125 2.938759,0.44113 1.430819,0.11778 2.845355,0.352 4.258357,0.60311 2.246964,0.35746 4.513953,0.56254 6.757824,0.94099 2.057844,0.31962 4.128256,0.51873 6.197145,0.75 1.42944,0.20743 2.865945,0.36271 4.313142,0.2767 0,0 -4.541851,3.29985 -4.541851,3.29985 z"
       inkscape:connector-curvature="0" />
    <path
       style="fill:#a75224;fill-opacity:1;stroke:none;stroke-width:0.76300001;stroke-linecap:round;stroke-linejoin:round;stroke-miterlimit:4;stroke-dasharray:none;stroke-dashoffset:0;stroke-opacity:1"
       id="path5313"
       d="m 89.888259,273.24097 c 1.243709,0.0299 2.487957,0.0191 3.731885,0.0132 0.895262,-0.005 1.790533,-0.008 2.685809,-0.009 0.353118,-0.004 0.706464,0.006 1.059513,-0.005 0.04273,-10e-4 0.16287,-0.0335 0.127939,-0.009 -4.834937,3.41108 -2.905249,3.67419 -5.227301,3.23506 -1.493446,-0.38763 -2.937968,-0.95413 -4.375952,-1.50972 -1.399463,-0.54178 -2.86953,-0.86728 -4.290292,-1.33706 -3.465915,-0.69129 1.480243,-3.78277 4.136887,-3.78964 1.156904,-0.01 2.313932,0.0118 3.470799,0.023 1.642184,0.0115 3.284421,0.0109 4.926634,0.0109 1.643711,0.0681 3.268416,0.30194 4.89788,0.50908 1.49861,0.15482 2.9889,0.37531 4.46913,0.65364 1.01559,0.20248 2.04878,0.28161 3.08185,0.31974 2.25083,0.0691 -0.2044,0.65098 -4.46579,3.31982 -0.0831,0.052 -1.20717,-0.38061 -1.30978,-0.41972 -1.33201,-0.48969 -2.61111,-1.09017 -3.952085,-1.55782 -1.710986,-0.67364 -3.449741,-1.28413 -5.192728,-1.87054 -1.71863,-0.54807 -3.382079,-1.25313 -5.054441,-1.92607 -1.463218,-0.71252 -2.973605,-1.32068 -4.463788,-1.97248 -0.864669,-0.44812 -1.820045,-0.68545 -2.647673,-1.20374 -0.299545,-0.17547 -1.012843,-0.53117 -1.366279,-0.48151 -0.03183,0.004 -0.02548,0.059 -0.03823,0.0885 1.641784,-1.04415 3.230898,-2.17615 4.925351,-3.13247 0.127391,-0.0719 0.283501,0.0725 0.423923,0.11344 0.910672,0.26574 1.817658,0.53442 2.730304,0.79474 1.608669,0.5399 3.261164,0.94705 4.918088,1.30913 1.574149,0.43921 3.1799,0.70544 4.805921,0.84259 1.100249,0.002 2.179027,0.2097 3.269127,0.32653 1.15888,0.25647 2.33851,0.37259 3.52109,0.44278 1.23815,0.0346 2.45922,0.25668 3.67356,0.48204 0.90048,0.17614 1.81501,0.23968 2.72792,0.3089 -0.19066,-2.06534 0.0522,0.0489 -4.79749,2.9732 -0.068,0.041 -0.34745,-0.20533 -0.50223,-0.29318 -0.14997,-0.0851 -0.59395,-0.25626 -0.72006,-0.3071 -1.30394,-0.53178 -2.64255,-0.99619 -3.97921,-1.44387 -1.673758,-0.53424 -3.314257,-1.16131 -4.941571,-1.82291 -1.796494,-0.79295 -3.566906,-1.64149 -5.331187,-2.50492 -0.674699,-0.40507 -1.412275,-0.70324 -2.055363,-1.16193 -0.404403,-0.28844 -0.73783,-0.66154 -1.099709,-0.99845 -0.480322,-0.49034 -0.899628,-1.11285 -0.508262,-1.77193 3.92444,-2.34023 4.057811,-3.14561 7.345611,-2.80455 1.936777,0.12168 3.854879,0.35162 5.776231,0.61868 1.89107,0.27313 3.7975,0.39363 5.70578,0.44972 1.05677,0.0256 2.11388,0.0183 3.17082,0.0122 0.50535,-0.0526 0.97682,0.0306 1.46515,0.14352 0,0 -4.60472,3.21077 -4.60472,3.21077 v 0 c -0.46091,-0.0735 -0.92171,-0.0746 -1.38818,-0.064 -1.04408,-0.004 -2.08826,-0.0186 -3.13129,-0.0688 -1.90267,-0.0955 -3.802384,-0.24078 -5.687143,-0.52824 -1.936475,-0.26182 -3.876144,-0.44143 -5.828395,-0.53463 -3.052067,-0.0891 -4.362096,1.36203 2.422662,-2.48011 -0.889545,0.0188 -0.304157,0.47106 0.02543,0.88312 0.88061,0.86273 1.847262,1.55144 2.976226,2.0739 1.750653,0.86724 3.531494,1.67454 5.31714,2.46519 1.62888,0.65085 3.28143,1.23359 4.94726,1.78273 1.35247,0.46888 2.71906,0.90304 4.04564,1.43981 2.88769,1.20259 1.15702,1.01325 -3.06434,4.09307 -0.048,0.035 -0.0994,-0.0652 -0.14911,-0.0978 -0.89963,-0.12047 -1.80564,-0.19778 -2.69556,-0.38518 -1.20254,-0.21656 -2.41424,-0.3913 -3.63739,-0.4311 -1.192342,-0.0927 -2.373524,-0.25219 -3.552547,-0.45233 -1.077801,-0.1338 -2.151287,-0.28848 -3.237791,-0.33771 -1.62438,-0.18567 -3.222786,-0.49937 -4.802224,-0.92512 -1.669902,-0.37269 -3.334779,-0.77165 -4.95758,-1.31853 -0.746191,-0.20352 -1.493658,-0.39888 -2.237751,-0.60976 -0.181118,-0.0513 -0.363254,-0.099 -0.544361,-0.15036 -0.154615,-0.0439 -0.581073,-0.0265 -0.462778,-0.13524 1.334492,-1.22725 2.847576,-2.24484 4.271365,-3.36726 0.473829,0.29746 1.130522,0.29823 1.561756,0.7053 0.828281,0.45594 1.732034,0.74822 2.576536,1.17204 1.470044,0.65759 2.92753,1.34156 4.40177,1.98982 1.669653,0.66302 3.333684,1.348 5.043873,1.90096 1.741197,0.61376 3.488792,1.20934 5.217602,1.8576 1.34258,0.47419 2.62097,1.1041 3.98116,1.53134 0.34235,0.10173 0.56364,0.18726 0.91297,0.2235 0.11057,0.0115 0.41976,-0.0676 0.33349,0.002 -3.89455,3.1656 -2.60619,3.47688 -4.64169,3.26966 -1.03273,-0.087 -2.06609,-0.18395 -3.08028,-0.40785 -1.468682,-0.2805 -2.951288,-0.47774 -4.437736,-0.63801 -1.609481,-0.22183 -3.222815,-0.42685 -4.849929,-0.45447 -1.642874,-0.003 -3.285743,-0.009 -4.928623,-0.0115 -1.164911,0.002 -2.335123,-0.0278 -3.496252,0.0775 -2.077093,0.49981 -0.114464,0.0665 4.146722,-2.96001 0.0294,-0.0209 -0.108628,-0.0752 -0.07288,-0.0799 0.164082,-0.0217 0.74109,0.41565 0.899409,0.3484 1.419236,0.45603 2.855299,0.86294 4.249005,1.39721 1.42427,0.53324 2.865456,1.10199 4.373009,1.34089 2.204654,0.0654 0.621837,-0.0664 -3.907491,3.32549 -0.02774,0.0208 -0.06896,-0.008 -0.103592,-0.009 -0.193101,-0.007 -0.476576,-0.005 -0.660207,-0.005 -0.128098,-1.1e-4 -0.256193,-2.7e-4 -0.384292,-5.3e-4 -0.886727,-10e-4 -1.773449,-0.004 -2.660163,-0.009 -1.256093,-0.006 -2.512475,-0.0161 -3.768362,0.0133 0,0 4.541853,-3.29985 4.541853,-3.29985 z"
       inkscape:connector-curvature="0" />
    <path
       style="fill:#a75224;fill-opacity:1;stroke:none;stroke-width:0.76300001;stroke-linecap:round;stroke-linejoin:round;stroke-miterlimit:4;stroke-dasharray:none;stroke-dashoffset:0;stroke-opacity:1"
       id="path5315"
       d="m 25.708596,189.59342 c 1.97299,0.85753 3.97816,1.64378 5.981542,2.42803 1.709672,0.63749 3.408104,1.318 5.14377,1.88294 0.839835,0.24738 1.732217,0.37743 2.528697,0.75168 0.65055,0.2719 1.343353,0.42137 2.012376,0.64515 0.562303,0.11009 1.181473,0.45247 1.771864,0.33616 0.08773,-0.0173 0.318477,-0.16257 0.24057,-0.11868 -1.567783,0.88315 -3.140358,1.75777 -4.710536,2.63664 0.03219,-0.002 0.09325,0.0269 0.09656,-0.005 0.03156,-0.30556 -1.633501,-1.85019 -1.893745,-2.10348 -1.305364,-1.20509 -2.789208,-2.18715 -4.223033,-3.22716 -1.020786,-0.6418 -2.122485,-1.1629 -3.225275,-1.6512 -3.56086,-1.254 0.0397,-2.0015 3.333251,-4.1703 1.17165,0.22082 2.343404,0.43629 3.526894,0.59147 2.027303,0.2422 4.03693,0.55093 6.043242,0.92582 1.801966,0.31845 3.603545,0.61135 5.426882,0.77399 1.113329,0.0838 2.230553,0.11276 3.346801,0.0994 1.968458,-0.07 4.389189,-2.20205 -4.544107,3.19683 -0.0051,0.003 -1.124781,-0.47119 -1.214911,-0.5074 -1.193938,-0.4428 -2.299756,-1.0454 -3.410927,-1.65825 -1.063032,-0.61316 -2.021953,-1.38077 -2.986066,-2.13549 -0.707149,-0.58796 -1.320588,-1.27364 -1.995135,-1.89574 -2.146782,-1.93112 2.315194,-4.606 4.70872,-3.72309 0.973307,0.25627 1.942418,0.52557 2.906247,0.8181 1.534012,0.37542 3.046931,0.82963 4.583671,1.19783 1.673976,0.41684 3.381795,0.62302 5.081521,0.89117 1.051552,0.16099 2.110944,0.25682 3.171224,0.33588 0,0 -4.516265,3.22213 -4.516265,3.22213 v 0 c -1.060857,-0.10441 -2.119998,-0.2251 -3.175042,-0.37853 -1.70878,-0.25755 -3.413535,-0.5223 -5.092944,-0.94083 -1.549516,-0.38299 -3.094225,-0.78772 -4.638389,-1.19056 -0.975159,-0.27332 -1.949746,-0.55051 -2.944386,-0.74589 -2.36079,-0.0945 6.398281,-1.90969 4.34322,-2.93709 -0.08488,-0.0424 0.04949,0.18893 0.108603,0.26316 0.07095,0.0891 0.155088,0.1668 0.232632,0.25021 0.639059,0.63032 1.257798,1.28174 1.940949,1.86617 0.939012,0.74089 1.879611,1.48576 2.928668,2.0686 1.090488,0.61633 2.211671,1.15605 3.391077,1.58433 0.245295,0.0968 0.626425,0.25275 0.883754,0.33354 0.11186,0.0351 0.430699,0.0134 0.340479,0.0882 -6.814307,5.65493 -2.559836,3.38865 -4.641903,3.28784 -1.107192,-0.0362 -2.215547,-0.0632 -3.317926,-0.18299 -1.819105,-0.20838 -3.621441,-0.51673 -5.424619,-0.83251 -1.999832,-0.37819 -4.011666,-0.66644 -6.034437,-0.89438 -0.652907,-0.0849 -2.655538,-0.50455 -3.243668,-0.3638 -0.0733,0.0175 -0.1329,0.0711 -0.19935,0.10664 5.644886,-3.77955 2.829333,-3.64075 5.740911,-2.42961 1.105792,0.53517 2.222574,1.07294 3.230369,1.77953 1.44307,1.07064 2.944921,2.07097 4.275614,3.28536 1.219327,1.1899 -0.09311,-0.10216 1.061392,1.06797 0.520409,0.52746 1.133197,1.00485 1.229021,1.78819 -4.671994,2.72181 -3.738366,3.47873 -7.128282,2.443 -0.695688,-0.20002 -1.40653,-0.36418 -2.064631,-0.67316 -0.807979,-0.28744 -1.639496,-0.4959 -2.455127,-0.75871 -1.705397,-0.62141 -3.395487,-1.28668 -5.083367,-1.95381 -2.01271,-0.80844 -4.02907,-1.60815 -6.07575,-2.32731 0,0 4.6293,-3.14094 4.6293,-3.14094 z"
       inkscape:connector-curvature="0" />
    <path
       style="fill:#a75224;fill-opacity:1;stroke:none;stroke-width:0.76300001;stroke-linecap:round;stroke-linejoin:round;stroke-miterlimit:4;stroke-dasharray:none;stroke-dashoffset:0;stroke-opacity:1"
       id="path5317"
       d="m 40.168732,233.72302 c 1.469586,0.18217 2.928157,0.42402 4.36848,0.77043 2.10888,0.43631 4.185653,1.01114 6.254901,1.60394 2.106027,0.53296 4.244988,0.92566 6.372526,1.36313 0.216435,0.0247 1.462537,0.31705 1.705398,0.18902 0.07255,-0.0383 0.150257,-0.2742 0.0794,-0.2329 -5.05232,2.94487 -3.368972,4.23267 -5.150088,2.64737 -1.767142,-1.39791 -3.647216,-2.63436 -5.583397,-3.78289 -1.473067,-0.83814 -2.871536,-1.84481 -4.468407,-2.439 -0.546137,-0.36185 -1.208019,-0.39908 -1.801794,-0.61905 5.675114,-3.51979 3.344653,-3.32351 7.264511,-2.34662 1.657723,0.39851 3.335192,0.68944 5.015095,0.97661 1.954421,0.37643 3.918413,0.70799 5.857372,1.15923 1.554663,0.50066 3.171526,0.74102 4.737351,1.19477 1.042239,0.2127 2.020419,0.64026 3.052662,0.88463 0.634685,0.23424 1.254329,0.51109 1.904688,0.69926 0.683194,0.0805 1.332942,0.26418 2.000636,0.41905 0.665991,0.15638 1.274416,-0.066 1.656017,0.60573 -5.130501,3.41698 -3.488992,3.18503 -7.357877,3.20855 -1.43006,0.0419 -2.861197,-0.0757 -4.272857,-0.30066 -1.060032,-0.14002 -2.073476,-0.49419 -3.075459,-0.85109 -0.655206,-0.23337 -1.262528,-0.52484 -1.955175,-0.63977 -0.714891,-0.0324 -1.341178,-0.3801 -2.002843,-0.60703 -0.679979,-0.15334 -1.364173,-0.22032 -2.045081,-0.37239 -0.766173,-0.22811 -1.317837,-0.69609 -1.860952,-1.25873 -0.62388,-0.72325 -1.32266,-1.37048 -1.995543,-2.04464 -0.613468,-0.57557 -1.35972,-0.98221 -1.982785,-1.54457 -2.576878,-2.0183 2.89506,-3.05583 4.469641,-3.88323 0.795009,0.12961 1.529672,0.47055 2.270524,0.77576 1.030676,0.48813 2.126194,0.72121 3.230044,0.97148 1.207542,0.29033 2.408428,0.56579 3.643775,0.71193 1.010523,0.0647 2.019557,0.19635 3.005289,0.43106 0.971722,0.26123 1.969137,0.35055 2.969937,0.40076 1.168672,0.0435 2.338364,0.0417 3.507642,0.0372 0.79548,-0.0142 1.591926,0.009 2.387031,-0.0239 -1.606431,0.99815 -3.170687,2.06762 -4.819295,2.99446 -0.07791,0.0438 -0.135284,-0.11757 -0.209574,-0.16727 -0.115197,-0.0771 -0.237099,-0.14367 -0.357592,-0.21216 -0.570992,-0.32455 -1.158373,-0.61889 -1.74339,-0.91693 -1.438648,-0.70045 -2.872129,-1.40921 -4.310454,-2.11001 -0.912141,-0.45288 -1.802977,-0.9732 -2.750487,-1.34978 -0.602652,-0.2917 -1.152615,-0.57631 -1.659289,-1.02003 -0.379399,-0.50786 -0.976802,-0.74383 -1.183177,-1.35806 4.88628,-3.13669 3.253946,-3.47442 6.219661,-2.82815 0.319968,0.0205 0.603435,0.17089 0.899096,0.27988 0,0 -4.653809,3.14537 -4.653809,3.14537 v 0 c -0.280813,-0.0949 -0.562404,-0.17729 -0.857303,-0.21827 -0.323646,-0.0655 -0.687054,-0.162 -1.009687,-0.0231 -0.05588,0.0241 -0.195424,0.14469 -0.14406,0.11208 1.543976,-0.98027 3.081713,-1.97034 4.62257,-2.95551 -0.04146,-0.0331 -0.07339,-0.0846 -0.124373,-0.0993 -0.03026,-0.009 0.03045,0.056 0.05233,0.0786 0.298387,0.30842 0.664319,0.55165 0.933831,0.89101 0.481069,0.37435 1.028954,0.61417 1.56958,0.89127 0.919533,0.43709 1.810933,0.93389 2.713863,1.40393 1.434076,0.71136 2.859148,1.43885 4.309589,2.11665 0.746614,0.37086 1.541862,0.71041 2.23048,1.18603 0.09058,0.0626 0.342209,0.1385 0.256675,0.20779 -1.449851,1.17453 -3.030427,2.1778 -4.545637,3.2667 -0.777618,-0.031 -1.556589,-0.002 -2.334527,-0.0166 -1.17679,-0.006 -2.354469,-0.002 -3.530042,-0.0622 -1.020408,-0.0725 -2.028947,-0.20841 -3.021256,-0.46559 -0.984737,-0.18174 -1.975249,-0.30834 -2.971935,-0.40321 -1.235392,-0.18528 -2.443101,-0.48202 -3.660518,-0.75691 -1.133949,-0.24279 -2.233782,-0.56433 -3.297621,-1.03258 -0.702786,-0.26536 -1.418273,-0.59742 -2.186649,-0.55821 1.567873,-0.89125 3.172473,-1.72079 4.703625,-2.67375 0.0685,-0.0426 -0.138555,-0.0827 -0.207566,-0.12451 -0.04451,-0.0269 -0.08096,-0.0808 -0.132982,-0.0817 -0.03007,-5.2e-4 0.497671,0.48815 0.475266,0.47823 0.646549,0.54359 1.376796,0.98758 1.978797,1.58583 0.688549,0.66403 1.36388,1.33869 2.015858,2.03924 0.489016,0.47543 1.001559,0.84684 1.68692,0.98543 0.699981,0.14095 1.424297,0.17272 2.096526,0.43351 0.63662,0.24742 1.271646,0.46973 1.957234,0.54162 0.686845,0.17503 1.315175,0.48754 1.985836,0.71149 0.962715,0.35015 1.948526,0.65816 2.968029,0.78789 1.403874,0.17877 2.815892,0.29239 4.232204,0.22023 0.573947,-0.017 1.151739,-0.0224 1.723438,-0.0824 2.023821,-0.2122 4.312081,-2.59918 -3.808228,2.87926 0.03238,0.0369 0.109011,0.0631 0.09713,0.11075 -0.0098,0.0392 -0.07688,-0.0254 -0.116504,-0.0331 -0.432721,-0.0841 -0.878147,-0.10013 -1.30338,-0.22549 -0.669496,-0.1738 -1.351547,-0.26829 -2.017742,-0.45325 -0.630676,-0.21869 -1.249066,-0.47217 -1.882846,-0.68195 -1.005927,-0.29863 -1.983187,-0.68922 -3.009545,-0.92145 -1.557526,-0.41668 -3.139475,-0.73595 -4.685964,-1.19637 -1.942193,-0.4223 -3.893746,-0.81017 -5.855753,-1.12797 -1.69059,-0.30237 -3.38206,-0.59242 -5.053534,-0.99096 -0.751192,-0.17137 -1.553271,-0.30268 -2.26832,-0.60223 -2.151383,-0.90128 1.813083,-1.67482 4.235569,-3.36947 0.607443,0.1804 1.199504,0.39255 1.762172,0.689 1.551509,0.70278 2.932258,1.71768 4.392443,2.5852 1.971101,1.18129 3.90439,2.42814 5.755767,3.79085 1.867194,1.60542 0.777145,0.40344 -3.964524,3.83937 -0.05456,0.0395 -1.858047,-0.33852 -1.928651,-0.3537 -2.11685,-0.47036 -4.252357,-0.8626 -6.347939,-1.42335 -2.078432,-0.58002 -4.168606,-1.11887 -6.283603,-1.55025 -1.440077,-0.31164 -2.903137,-0.56947 -4.379247,-0.60955 0,0 4.541852,-3.29985 4.541852,-3.29985 z"
       inkscape:connector-curvature="0" />
    <path
       style="fill:#a75224;fill-opacity:1;stroke:none;stroke-width:0.76300001;stroke-linecap:round;stroke-linejoin:round;stroke-miterlimit:4;stroke-dasharray:none;stroke-dashoffset:0;stroke-opacity:1"
       id="path5319"
       d="m 104.1547,213.93371 c 1.23322,0.59033 2.57609,0.87081 3.85245,1.34298 0.98471,0.28785 1.85781,0.83702 2.81717,1.18216 0.72808,0.14363 1.43869,0.33273 2.16152,0.50052 0.0794,0.4629 0.49791,-0.18794 0.37219,-0.11342 -5.54564,3.2871 -3.44857,4.24958 -5.09539,2.61741 -0.69386,-0.52349 -1.38749,-1.05679 -2.13097,-1.50906 -0.72115,-0.45538 -1.49469,-0.83109 -2.14463,-1.38936 -0.48796,-0.404 -0.96373,-0.83505 -1.38657,-1.30805 -1.32478,-2.30344 3.04365,-3.70028 5.29414,-3.80097 0.8378,0.0177 1.66681,0.1998 2.50252,0.28492 0.72747,-0.0252 1.31951,0.3622 1.96602,0.6155 0.51226,0.26591 1.05853,0.46277 1.59973,0.66249 0,0 -4.64993,3.12682 -4.64993,3.12682 v 0 c -0.54546,-0.21325 -1.09554,-0.41487 -1.62284,-0.67132 -0.59751,-0.26913 -1.18725,-0.49012 -1.85678,-0.49513 -0.80631,-0.0991 -1.62401,-0.29005 -2.4359,-0.15416 -0.16128,0.0424 -0.60659,0.2735 -0.46412,0.18682 1.53826,-0.93585 3.10116,-1.83223 4.61621,-2.80521 0.0763,-0.049 -0.23088,-0.095 -0.22009,-0.005 0.006,0.0527 0.0506,0.0933 0.0759,0.13997 0.41763,0.44243 0.85826,0.86724 1.33179,1.24941 0.6531,0.51101 1.39602,0.89088 2.09142,1.33943 0.76478,0.49821 1.51171,1.03003 2.22479,1.59945 0.20201,0.2056 0.44131,0.44018 0.41176,0.46447 -5.55005,4.56258 -2.75086,3.81843 -5.09863,3.15208 -0.72881,-0.19411 -1.47514,-0.31651 -2.18632,-0.57063 -0.92813,-0.39086 -1.81031,-0.88983 -2.7768,-1.19064 -1.29495,-0.4513 -2.62047,-0.81315 -3.895707,-1.32308 0,0 4.647117,-3.12796 4.647117,-3.12796 z"
       inkscape:connector-curvature="0" />
    <path
       style="fill:#a75224;fill-opacity:1;stroke:none;stroke-width:0.76300001;stroke-linecap:round;stroke-linejoin:round;stroke-miterlimit:4;stroke-dasharray:none;stroke-dashoffset:0;stroke-opacity:1"
       id="path5321"
       d="m 96.121451,183.40633 c 1.873129,1.14198 3.841276,2.13835 5.841549,3.0378 3.43194,1.61884 6.99959,2.9239 10.62128,4.04561 2.89071,0.84811 5.78226,1.70547 8.7176,2.38766 1.11808,0.096 2.20155,0.71621 3.33377,0.63499 -1.57667,0.84911 -3.16469,1.67747 -4.72999,2.54735 -0.038,0.0211 0.11159,0.0482 0.13015,0.009 0.0275,-0.0582 -0.0187,-0.12922 -0.0458,-0.18761 -0.0713,-0.15372 -0.15676,-0.30096 -0.2474,-0.44415 -0.30561,-0.48281 -0.54921,-0.76847 -0.90758,-1.22707 -1.26967,-1.74457 -2.81445,-3.24275 -4.4065,-4.68651 -1.57618,-1.24686 -3.35686,-2.14896 -5.19826,-2.92718 -2.00095,-0.87761 -4.06157,-1.60453 -6.08737,-2.4174 -1.7036,-0.70464 -3.418222,-1.38358 -5.131476,-2.06511 -1.127318,-0.43153 -2.222973,-0.95248 -3.394172,-1.25627 -0.791816,-0.10816 -1.558198,-0.32972 -2.348746,-0.44789 -0.370621,-0.0137 -0.721368,-0.13868 -1.0769,-0.23296 -2.071078,-0.54917 -2.621835,1.27128 4.417283,-3.01903 0.999027,0.66827 2.08871,1.20873 3.174259,1.72662 2.528402,1.03958 4.971002,2.26752 7.427512,3.46319 2.33117,1.20522 4.70475,2.33361 6.99834,3.60968 1.59543,0.77843 3.11316,1.69466 4.62313,2.62347 1.09586,0.65178 2.24957,1.19384 3.37794,1.78397 3.13459,1.4974 1.35657,0.95807 -3.46469,3.92031 -0.80669,-0.20932 -1.59011,-0.49553 -2.39296,-0.71924 -1.55523,-0.55633 -3.0948,-1.17358 -4.62966,-1.79071 -2.08911,-0.75956 -4.22411,-1.39366 -6.29012,-2.21421 -1.41031,-0.54013 -2.82933,-1.04906 -4.23978,-1.58826 -0.223043,0.0361 -0.448026,-0.27956 -0.689895,-0.24615 -0.03963,0.005 -0.07956,0.1308 -0.04456,0.11142 1.610845,-0.89192 3.159475,-1.89671 4.795305,-2.74193 0.071,-0.0367 0.0351,0.1566 0.0649,0.23073 0.0383,0.0953 0.0923,0.1836 0.13842,0.2754 0.54726,0.85616 1.27024,1.57076 2.08948,2.16405 1.01569,0.67151 2.08547,1.25092 3.18087,1.78029 1.1492,0.41732 2.26232,0.92302 3.44589,1.2376 0.81347,0.21557 1.50503,0.68602 2.2601,1.03048 2.92421,1.7987 -3.64931,3.56819 -4.39079,3.97375 -1.16365,0.0474 -2.31005,-0.17442 -3.42656,-0.48397 -1.6365,-0.47856 -3.27478,-0.94831 -4.93089,-1.3551 -1.03945,-0.25954 -2.10254,-0.37387 -3.170448,-0.41463 -2.269718,-0.0538 -1.990352,0.60473 4.254108,-3.2 0.0818,-0.0498 0.16304,0.10119 0.24892,0.14365 0.21983,0.10868 0.44992,0.19528 0.67331,0.29644 1.02969,0.31754 2.03963,0.70203 3.07096,1.01785 0.98936,0.40635 2.03325,0.68411 2.98585,1.17346 0.72242,0.39458 1.51999,0.62722 2.25485,0.98804 0.1037,0.0459 0.2074,0.0919 0.3111,0.13782 0,0 -4.67421,3.10172 -4.67421,3.10172 v 0 c -0.10351,-0.0477 -0.207,-0.0954 -0.31051,-0.14317 -0.75424,-0.32275 -1.51593,-0.62993 -2.24463,-1.0096 -0.94872,-0.43686 -1.95251,-0.75347 -2.93177,-1.11344 -1.04007,-0.34934 -2.0856,-0.68279 -3.11826,-1.05013 -0.234923,-0.0957 -0.46609,-0.20084 -0.703447,-0.29033 -0.07329,-0.0276 -0.285422,-0.0228 -0.223909,-0.0712 4.169506,-3.28681 2.702486,-3.41691 4.952666,-3.24396 1.07619,0.081 2.14158,0.251 3.1841,0.53589 1.64334,0.43239 3.27037,0.92 4.91074,1.36275 1.08985,0.23038 2.25352,0.46687 3.35772,0.19329 -1.55153,0.88946 -3.13731,1.7217 -4.65461,2.66839 -0.0663,0.0414 0.14209,0.0657 0.20969,0.10491 0.0534,0.031 0.0948,0.0829 0.15235,0.10516 0.0535,0.0207 -0.56528,-0.45529 -0.46356,-0.34233 -0.71181,-0.36576 -1.4109,-0.74869 -2.18808,-0.96592 -1.18332,-0.37678 -2.32639,-0.87054 -3.47729,-1.33411 -1.11608,-0.566 -2.23604,-1.13232 -3.26286,-1.85289 -0.85489,-0.67737 -1.62214,-1.45507 -2.238322,-2.35948 -0.138843,-0.25409 -0.362093,-0.64077 -0.317291,-0.67538 4.828683,-3.73015 3.104833,-3.92133 5.543203,-2.8405 1.38418,0.55777 2.78774,1.06367 4.16591,1.63666 2.07706,0.7973 4.20561,1.45048 6.29572,2.21288 1.54347,0.59824 3.09386,1.19626 4.67124,1.69583 0.78926,0.22728 1.57412,0.50209 2.39083,0.61121 -5.1246,3.50855 -2.96817,3.83018 -5.79376,2.39384 -1.13499,-0.59308 -2.27006,-1.1865 -3.37205,-1.83991 -1.47672,-0.94485 -2.99364,-1.82376 -4.54572,-2.63963 -2.27602,-1.27089 -4.61523,-2.42588 -6.93345,-3.61705 -2.469114,-1.21057 -4.940627,-2.41344 -7.510281,-3.40087 -1.169048,-0.55073 -2.389873,-1.08594 -3.419012,-1.87325 5.853975,-4.02421 2.808759,-3.3594 6.090835,-2.8577 0.794549,0.15062 1.585402,0.32787 2.37295,0.50925 1.154678,0.37112 2.253128,0.89176 3.380468,1.33614 1.69048,0.71028 3.40143,1.36713 5.08685,2.0892 2.03566,0.80671 4.09105,1.56462 6.10722,2.42077 1.88064,0.81597 3.69392,1.77788 5.28132,3.092 1.60654,1.47272 3.15645,3.00669 4.48977,4.73716 2.84899,3.49042 1.9393,2.48926 -3.49713,5.41038 -1.11642,-0.18606 -2.19144,-0.55268 -3.2965,-0.79215 -2.88584,-0.7745 -5.73828,-1.66614 -8.60541,-2.50599 -3.62884,-1.18801 -7.2376,-2.47062 -10.716108,-4.05148 -2.054719,-0.89201 -4.048913,-1.91527 -6.019051,-2.98095 0,0 4.681344,-3.05109 4.681344,-3.05109 z"
       inkscape:connector-curvature="0" />
  </g>
</svg>
